<?xml version="1.0" encoding="utf-8"?>
<!-- Generator: Adobe Illustrator 16.0.4, SVG Export Plug-In . SVG Version: 6.00 Build 0)  -->
<!DOCTYPE svg PUBLIC "-//W3C//DTD SVG 1.1//EN" "http://www.w3.org/Graphics/SVG/1.1/DTD/svg11.dtd">
<svg version="1.1" id="Layer_1" xmlns="http://www.w3.org/2000/svg" xmlns:xlink="http://www.w3.org/1999/xlink" x="0px" y="0px"
	 width="8.143px" height="15.266px" viewBox="0 0 8.143 15.266" enable-background="new 0 0 8.143 15.266" xml:space="preserve">
<g>
	<path fill="#FFFFFF" d="M0.535,8.777C-0.1,8.245-0.182,7.299,0.35,6.664l5.144-6.128c0.531-0.636,1.479-0.719,2.112-0.186l0,0
		C8.241,0.883,8.323,1.83,7.79,2.464L2.648,8.593C2.116,9.227,1.169,9.31,0.535,8.777L0.535,8.777z"/>
	<path fill="#FFFFFF" d="M0.535,6.486c0.634-0.531,1.581-0.447,2.112,0.188l5.144,6.129c0.532,0.635,0.449,1.58-0.187,2.113l0,0
		c-0.634,0.53-1.581,0.449-2.112-0.187L0.35,8.6C-0.182,7.966-0.1,7.02,0.535,6.486L0.535,6.486z"/>
</g>
</svg>
