<?xml version="1.0" encoding="utf-8"?>
<!-- Generator: Adobe Illustrator 16.0.0, SVG Export Plug-In . SVG Version: 6.00 Build 0)  -->
<!DOCTYPE svg PUBLIC "-//W3C//DTD SVG 1.1//EN" "http://www.w3.org/Graphics/SVG/1.1/DTD/svg11.dtd">
<svg version="1.1" id="Layer_1" xmlns="http://www.w3.org/2000/svg" xmlns:xlink="http://www.w3.org/1999/xlink" x="0px" y="0px"
	 width="23.496px" height="23.496px" viewBox="0 0 23.496 23.496" enable-background="new 0 0 23.496 23.496" xml:space="preserve">
<g id="search_1_">
	<path d="M0.148,21.217l2.132,2.132c0.194,0.196,0.517,0.196,0.712,0l5.878-5.878c1.482,0.957,3.241,1.519,5.132,1.519
		c5.236,0,9.494-4.259,9.494-9.495C23.496,4.259,19.238,0,14.001,0C8.767,0,4.505,4.259,4.505,9.494c0,1.892,0.564,3.65,1.521,5.132
		l-5.878,5.879C-0.049,20.701-0.049,21.021,0.148,21.217z M14.001,15.974c-3.573,0-6.479-2.906-6.479-6.479
		c0-3.571,2.905-6.479,6.479-6.479c3.572,0,6.479,2.907,6.479,6.479C20.48,13.067,17.574,15.974,14.001,15.974z"/>
</g>
</svg>
