<?xml version="1.0" encoding="utf-8"?>
<!-- Generator: Adobe Illustrator 16.0.4, SVG Export Plug-In . SVG Version: 6.00 Build 0)  -->
<!DOCTYPE svg PUBLIC "-//W3C//DTD SVG 1.1//EN" "http://www.w3.org/Graphics/SVG/1.1/DTD/svg11.dtd">
<svg version="1.1" id="Layer_1" xmlns="http://www.w3.org/2000/svg" xmlns:xlink="http://www.w3.org/1999/xlink" x="0px" y="0px"
	 width="8.143px" height="15.266px" viewBox="0 0 8.143 15.266" enable-background="new 0 0 8.143 15.266" xml:space="preserve">
<g>
	<path fill="#FFFFFF" d="M7.606,8.777C6.972,9.31,6.025,9.227,5.493,8.593L0.351,2.464C-0.182,1.83-0.1,0.883,0.535,0.351l0,0
		c0.635-0.533,1.581-0.45,2.113,0.185l5.143,6.128C8.323,7.299,8.241,8.245,7.606,8.777L7.606,8.777z"/>
	<path fill="#FFFFFF" d="M7.606,6.486C8.241,7.02,8.323,7.966,7.791,8.6l-5.142,6.129c-0.532,0.635-1.479,0.717-2.113,0.186l0,0
		c-0.635-0.533-0.718-1.479-0.186-2.113l5.143-6.129C6.025,6.038,6.972,5.954,7.606,6.486L7.606,6.486z"/>
</g>
</svg>
