<?xml version="1.0" encoding="utf-8"?>
<!-- Generator: Adobe Illustrator 16.0.0, SVG Export Plug-In . SVG Version: 6.00 Build 0)  -->
<!DOCTYPE svg PUBLIC "-//W3C//DTD SVG 1.1//EN" "http://www.w3.org/Graphics/SVG/1.1/DTD/svg11.dtd">
<svg version="1.1" id="Layer_1" xmlns="http://www.w3.org/2000/svg" xmlns:xlink="http://www.w3.org/1999/xlink" x="0px" y="0px"
	 width="10px" height="14.5px" viewBox="0 0 10 14.5" enable-background="new 0 0 10 14.5" xml:space="preserve">
<path fill="none" stroke="#000000" stroke-miterlimit="10" d="M8,6.5H2v-3c0-1.65,1.35-3,3-3l0,0c1.65,0,3,1.35,3,3V6.5z"/>
<g>
	<path d="M1,5.5c-0.55,0-1,0.45-1,1v7c0,0.55,0.45,1,1,1h8c0.55,0,1-0.45,1-1v-7c0-0.55-0.45-1-1-1H1z M6.5,11.25c0,0.55-0.45,1-1,1
		h-1c-0.55,0-1-0.45-1-1v-3c0-0.55,0.45-1,1-1h1c0.55,0,1,0.45,1,1V11.25z"/>
</g>
</svg>
